<svg viewBox="0 0 400 225" fill="none" xmlns="http://www.w3.org/2000/svg">
<path fill-rule="evenodd" clip-rule="evenodd" d="M261.769 70.6923H126.385V189.154H261.769V70.6923Z" fill="white" stroke="#263238" stroke-width="3.5" stroke-linecap="round" stroke-linejoin="round"/>
<path fill-rule="evenodd" clip-rule="evenodd" d="M187.357 188.285L145.974 145.096L211.411 86.7461L261.769 139.302V188.285H187.357Z" fill="#7BE380" stroke="#263238" stroke-width="3.5" stroke-linecap="round" stroke-linejoin="round"/>
<path fill-rule="evenodd" clip-rule="evenodd" d="M188.077 188.998L126.385 124.654L126.385 188.998H188.077Z" fill="#7BE380" stroke="#263238" stroke-width="3.5" stroke-linecap="round" stroke-linejoin="round"/>
<path fill-rule="evenodd" clip-rule="evenodd" d="M155.154 109.615C149.546 109.615 145 105.069 145 99.4615C145 93.8537 149.546 89.3077 155.154 89.3077C160.762 89.3077 165.308 93.8537 165.308 99.4615C165.308 105.069 160.762 109.615 155.154 109.615Z" fill="#F7E07E" stroke="#263238" stroke-width="3.5" stroke-linecap="round" stroke-linejoin="round"/>
<path fill-rule="evenodd" clip-rule="evenodd" d="M278.692 62.2308V53.7692H143.308V70.6923H261.769V172.231H278.692V62.2308Z" fill="#EBF1F5" stroke="#263238" stroke-width="3.5" stroke-linecap="round" stroke-linejoin="round"/>
<path fill-rule="evenodd" clip-rule="evenodd" d="M295.615 45.3077V36.8461H160.231V53.7692H278.692V155.308H295.615V45.3077Z" fill="#EBF1F5" stroke="#263238" stroke-width="3.5" stroke-linecap="round" stroke-linejoin="round"/>
</svg>
